# xmcd CD database file
#
# Track frame offsets:
#	150
#	15712
#	29330
#	40873
#	55914
#	67405
#	80076
#	92296
#	105820
#	115665
#	125954
#	139502
#	153521
#	168931
#
# Disc length: 2420 seconds
#
# Revision: 0
# Processed by: cddbd v1.5.2PL0 Copyright (c) Steve Scherf et al.
# Submitted via: ACXtractor (MTCDDB.DLL V2003.12.21)
#
DISCID=b309720e
DTITLE=Neil Buttsworth - Livin' In the Shadow
DYEAR=2008
DGENRE=Country
TTITLE0=Made in Japan
TTITLE1=Ballad of Port Macquarie
TTITLE2=Up to Now I've Wanted Everything But You
TTITLE3=Wondering
TTITLE4=Livin' in the Shadow (of Slim Dusty)
TTITLE5=Mexico Winter
TTITLE6=I Wish I had met Hank
TTITLE7=Waltz Across Tamworth
TTITLE8=Could Ya, Would Ya, Do Ya Wanna?
TTITLE9=You're Sixteen
TTITLE10=Swingin'
TTITLE11=Always Late
TTITLE12=Empty Arms Hotel
TTITLE13=Are you Sure Slim Done it This Way?
EXTD=ID3G:   2 YEAR: 2008
EXTT0=
EXTT1=
EXTT2=
EXTT3=
EXTT4=
EXTT5=
EXTT6=
EXTT7=
EXTT8=
EXTT9=
EXTT10=
EXTT11=
EXTT12=
EXTT13=
PLAYORDER=
